<?xml version="1.0" encoding="UTF-8"?>
<svg xmlns="http://www.w3.org/2000/svg" width="94.31" height="20.44" viewBox="0 0 94.31 20.44">
  <defs>
    <style>
      .cls-1 {
        fill: #2dc7ff;
      }

      .cls-2 {
        fill: #eaba6b;
      }

      .cls-3 {
        fill: #05dd66;
      }

      .cls-4 {
        fill: #00abe7;
      }
    </style>
  </defs>
  <g id="Ebene_1" data-name="Ebene 1"/>
  <g id="Ebene_2" data-name="Ebene 2">
    <g id="logo">
      <g id="color_fill" data-name="color fill">
        <path id="wasser" class="cls-4" d="M79.5,15.25s-.53-.73-.61-2.6c0,0,2.66-2.95,7.75,.11,4.2,2.52,6.74,1.14,6.74,1.14,0,0-.18,1.42-1.03,2.41,0,0-.94,1.06-6.12-1.2-2.68-1.17-4.8-1.07-6.72,.13Z"/>
        <path id="wasser-2" data-name="wasser" class="cls-1" d="M80.81,17.26s-.16,0-.95-1.34c0,0,2.38-2.6,6.52-.33,2.11,1.08,2.71,1.27,5.25,1.65,0,0-.81,1.01-2.49,1.78,0,0-4.98-2.94-8.33-1.76Z"/>
        <path id="sand" class="cls-2" d="M81.43,17.86s2.9-.96,6.81,1.48c0,0-3.67,1.38-6.81-1.48Z"/>
        <path id="blatt" class="cls-3" d="M88.71,4.11s.43-1.99,3.11-1.7l-3.11,1.7Z"/>
        <path id="blatt-2" data-name="blatt" class="cls-3" d="M87.92,3.68s-1.24-1.96,.23-2.72l-.23,2.72Z"/>
        <path id="blatt-3" data-name="blatt" class="cls-3" d="M87.44,9.3s-1.41-1.01,.28-3.15l-.28,3.15Z"/>
        <path id="blatt-4" data-name="blatt" class="cls-3" d="M83.91,7.88s-.41-2.74,3.31-2.74l-3.31,2.74Z"/>
      </g>
      <path id="palm_o" data-name="palm o" d="M86.21,20.37c-2.39,0-4.52-1.02-6-2.65-.03-.03-.06-.07-.09-.1-1.19-1.36-1.92-3.13-1.99-5.09,0-.09,.03-.18,.09-.25,.03-.03,2.93-3.37,8.69-.22,.07,.04,3.94,2.63,6.62,.92,.02-.24,.03-.47,.03-.71,0-3.35-2-6.1-5.03-6.98l-.42,4.77c-.01,.13-.09,.24-.21,.3-.12,.06-.26,.05-.37-.02-.74-.47-1.19-1.07-1.31-1.77-.12-.66,.05-1.32,.33-1.91l-2.71,2.25c-.1,.09-.24,.11-.37,.06-.13-.05-.22-.16-.24-.29-.23-1.34,.02-2.4,.74-3.14,.97-1,2.52-1.16,3.49-1.15-.43-.72-.98-1.92-.66-2.93,.22-.69,.77-1.18,1.65-1.45,.12-.04,.25-.01,.34,.07,.09,.08,.15,.2,.14,.32l-.19,2.22c.07-.07,.15-.15,.24-.22,.93-.75,2.3-.94,4.07-.57,.15,.03,.27,.16,.29,.31,.02,.15-.05,.31-.19,.38-2.05,1.12-3.28,1.79-4.03,2.17,3.14,1.1,5.17,4.04,5.17,7.57,0,.93-.16,1.83-.45,2.66-.23,.68-.54,1.3-.94,1.87,0,.01-.02,.03-.03,.04-.89,1.3-2.14,2.32-3.62,2.93-.02,.01-.05,.02-.07,.03-.93,.37-1.94,.57-3,.57Zm-4.79-2.51c1.28,1.1,2.95,1.76,4.79,1.76,.7,0,1.38-.1,2.02-.28-3.36-1.96-5.79-1.73-6.81-1.48Zm1.47-.92c1.48,0,3.62,.42,6.25,2.08,.95-.41,1.8-1.02,2.49-1.78-1.15,.03-3.11-.35-5.28-1.49-3.47-1.81-5.8-.38-6.49,.16,.32,.54,.56,.88,.75,1.11,.07,.08,.13,.15,.2,.23,.35-.13,1.06-.32,2.08-.32Zm.16-2.82c1.04,0,2.26,.25,3.64,.97,2.66,1.39,4.87,1.54,5.45,1.32,.09-.04,.16-.07,.2-.09,.33-.49,.6-1.03,.8-1.6,.09-.26,.17-.53,.23-.81-3,1.36-6.68-1.11-6.85-1.22-4.67-2.55-7.13-.54-7.64-.04,.05,.93,.26,1.8,.61,2.6,.59-.43,1.82-1.13,3.55-1.13Zm4.66-7.97c-.44,.66-.88,1.52-.74,2.28,.06,.32,.21,.61,.47,.87l.28-3.15Zm-.49-1.01c-.82,.02-2,.19-2.7,.92-.43,.44-.63,1.05-.61,1.82l3.31-2.74Zm4.22-2.74c-.82,0-1.48,.19-1.97,.58-.42,.33-.64,.77-.76,1.13,.82-.44,2.19-1.19,3.11-1.7-.13,0-.26-.01-.38-.01Zm-3.29-1.45c-.33,.19-.53,.43-.63,.73-.19,.6,.08,1.37,.4,1.99l.23-2.72Z"/>
      <g id="KOKOM">
        <path id="K" d="M0,4.99c0-.34,.25-.6,.58-.6s.58,.27,.58,.6v14.77c0,.31-.25,.6-.58,.6s-.58-.29-.58-.6V4.99Zm2.1,7.74c-.07-.07-.16-.2-.16-.36s.07-.29,.13-.36l6.22-7.41c.11-.13,.25-.22,.42-.22,.31,0,.56,.25,.56,.56,0,.13-.07,.27-.16,.36L3.25,12.31l5.95,7.07c.09,.13,.13,.27,.13,.4,0,.31-.27,.58-.58,.58-.18,0-.34-.07-.45-.22L2.1,12.74Z"/>
        <path id="O" d="M10.05,12.38c0-4.5,3.49-8.06,7.9-8.06s7.92,3.56,7.92,8.06-3.49,8.06-7.92,8.06-7.9-3.56-7.9-8.06Zm14.61,0c0-3.89-2.95-6.96-6.71-6.96s-6.69,3.06-6.69,6.96,2.95,6.94,6.69,6.94,6.71-3.06,6.71-6.94Z"/>
        <path id="K-2" data-name="K" d="M28.55,4.99c0-.34,.25-.6,.58-.6s.58,.27,.58,.6v14.77c0,.31-.25,.6-.58,.6s-.58-.29-.58-.6V4.99Zm2.1,7.74c-.07-.07-.16-.2-.16-.36s.07-.29,.13-.36l6.22-7.41c.11-.13,.25-.22,.42-.22,.31,0,.56,.25,.56,.56,0,.13-.07,.27-.16,.36l-5.89,7,5.95,7.07c.09,.13,.13,.27,.13,.4,0,.31-.27,.58-.58,.58-.18,0-.34-.07-.45-.22l-6.2-7.41Z"/>
        <path id="O-2" data-name="O" d="M38.6,12.38c0-4.5,3.49-8.06,7.9-8.06s7.92,3.56,7.92,8.06-3.49,8.06-7.92,8.06-7.9-3.56-7.9-8.06Zm14.61,0c0-3.89-2.95-6.96-6.71-6.96s-6.69,3.06-6.69,6.96,2.95,6.94,6.69,6.94,6.71-3.06,6.71-6.94Z"/>
        <path id="M" d="M66.38,4.64c.16-.18,.29-.25,.49-.25,.34,0,.58,.27,.58,.6V13.68l7.61-9.04c.16-.18,.29-.25,.49-.25,.31,0,.58,.27,.58,.6v14.77c0,.31-.27,.6-.58,.6-.34,0-.6-.29-.6-.6V6.45l-7.5,8.93v4.39c0,.31-.25,.6-.58,.6s-.58-.29-.58-.6V6.45l-11.48,13.7c-.11,.13-.27,.22-.42,.22-.31,0-.56-.27-.56-.56,0-.13,.04-.25,.16-.38l12.4-14.79Z"/>
      </g>
    </g>
  </g>
</svg>